<svg xmlns="http://www.w3.org/2000/svg" width="48" height="48" fill="none">
    <path stroke="#36BB91" stroke-linecap="round" stroke-linejoin="round" stroke-miterlimit="10" stroke-width="1.5"
          d="M24 11.12h20"/>
    <path stroke="#36BB91" stroke-linecap="round" stroke-linejoin="round" stroke-width="1.5"
          d="M28.44 4h11.12C43.12 4 44 4.88 44 8.4v8.22c0 3.52-.88 4.4-4.44 4.4H28.44c-3.56 0-4.44-.88-4.44-4.4V8.4c0-3.52.88-4.4 4.44-4.4Z"/>
    <path stroke="#36BB91" stroke-linecap="round" stroke-linejoin="round" stroke-miterlimit="10" stroke-width="1.5"
          d="M4 34.12h20"/>
    <path stroke="#36BB91" stroke-linecap="round" stroke-linejoin="round" stroke-width="1.5"
          d="M8.44 27h11.12c3.56 0 4.44.88 4.44 4.4v8.22c0 3.52-.88 4.4-4.44 4.4H8.44c-3.56 0-4.44-.88-4.44-4.4V31.4c0-3.52.88-4.4 4.44-4.4ZM44 30c0 7.74-6.26 14-14 14l2.1-3.5M4 18c0-7.74 6.26-14 14-14l-2.1 3.5"/>
</svg>