<svg xmlns="http://www.w3.org/2000/svg" width="49" height="48" fill="none">
    <path stroke="#36BB91" stroke-linecap="round" stroke-linejoin="round" stroke-width="1.5"
          d="m26.22 5.036-.06.14-5.8 13.46h-5.7c-1.36 0-2.66.28-3.84.78l3.5-8.36.08-.2.14-.32c.04-.12.08-.24.14-.34 2.62-6.06 5.58-7.44 11.54-5.16Z"/>
    <path stroke="#36BB91" stroke-linecap="round" stroke-linejoin="round" stroke-width="1.5"
          d="M37 19.036c-.9-.28-1.86-.4-2.82-.4H20.36l5.8-13.46.06-.14c.3.1.58.24.88.36l4.42 1.86c2.46 1.02 4.18 2.08 5.22 3.36.2.24.36.46.5.72.18.28.32.56.4.86.08.18.14.36.18.52.54 1.68.22 3.74-.82 6.32Z"/>
    <path stroke="#36BB91" stroke-linecap="round" stroke-linejoin="round" stroke-width="1.5"
          d="M43.944 28.397v3.9c0 .4-.02.8-.04 1.2-.38 6.98-4.28 10.5-11.68 10.5h-15.6c-.48 0-.96-.04-1.42-.1-6.36-.42-9.76-3.82-10.18-10.18-.06-.46-.1-.94-.1-1.42v-3.9c0-4.02 2.44-7.48 5.92-8.98 1.2-.5 2.48-.78 3.84-.78h19.52c.98 0 1.94.14 2.82.4 3.98 1.22 6.92 4.94 6.92 9.36Z"/>
    <path stroke="#36BB91" stroke-linecap="round" stroke-linejoin="round" stroke-width="1.5"
          d="m14.32 11.056-3.5 8.36c-3.48 1.5-5.92 4.96-5.92 8.98v-5.86c0-5.68 4.04-10.42 9.42-11.48ZM43.938 22.535v5.86c0-4.4-2.92-8.14-6.92-9.34 1.04-2.6 1.34-4.64.84-6.34-.04-.18-.1-.36-.18-.52 3.72 1.92 6.26 5.86 6.26 10.34Z"/>
</svg>