<svg xmlns="http://www.w3.org/2000/svg" width="2000" height="952" fill="none">
    <g clip-path="url(#a)">
        <path fill="#080812" d="M0 0h2000v952H0z"/>
        <mask id="a" width="856" height="951" x="1145" y="0" maskUnits="userSpaceOnUse" style="mask-type:alpha">
            <path stroke="#151515"
                  d="M1240.5 475.5h95v95h-95zm-95 0h95v95h-95zm95 95h95v95h-95zm0 95h95v95h-95zm0 95h95v95h-95zm0 95h95v95h-95zm-95-285h95v95h-95zm0 95h95v95h-95zm0 95h95v95h-95zm0 95h95v95h-95zm95-475h95v95h-95zm-95 0h95v95h-95zm95-95h95v95h-95zm-95 0h95v95h-95zm95-95h95v95h-95zm-95 0h95v95h-95zm95-95h95v95h-95zm-95 0h95v95h-95zm95-95h95v95h-95zm-95 0h95v95h-95zm190 475h95v95h-95zm0 95h95v95h-95zm0 95h95v95h-95zm0 95h95v95h-95zm0 95h95v95h-95zm0-475h95v95h-95zm0-95h95v95h-95zm0-95h95v95h-95zm0-95h95v95h-95zm0-95h95v95h-95zm95 475h95v95h-95zm0 95h95v95h-95zm0 95h95v95h-95zm0 95h95v95h-95zm0 95h95v95h-95zm95-190h95v95h-95zm95 0h95v95h-95zm95 0h95v95h-95zm95 0h95v95h-95zm95 0h95v95h-95zm-285-95h95v95h-95zm95 0h95v95h-95zm95 0h95v95h-95zm95 0h95v95h-95zm-380 190h95v95h-95zm95 0h95v95h-95zm95 0h95v95h-95zm95 0h95v95h-95zm95 0h95v95h-95zm-380 95h95v95h-95zm95 0h95v95h-95zm95 0h95v95h-95zm95 0h95v95h-95zm95 0h95v95h-95zm-475-475h95v95h-95zm0-95h95v95h-95zm0-95h95v95h-95zm0-95h95v95h-95zm0-95h95v95h-95zm95 475h95v95h-95zm95 0h95v95h-95zm95 0h95v95h-95zm95 0h95v95h-95zm95 0h95v95h-95zm-380 95h95v95h-95zm0-190h95v95h-95zm95 0h95v95h-95zm95 0h95v95h-95zm95 0h95v95h-95zm95 0h95v95h-95zm-380-95h95v95h-95zm95 0h95v95h-95zm95 0h95v95h-95zm95 0h95v95h-95zm95 0h95v95h-95zm-380-95h95v95h-95zm95 0h95v95h-95zm95 0h95v95h-95zm95 0h95v95h-95zm95 0h95v95h-95zm-380-95h95v95h-95zm95 0h95v95h-95zm95 0h95v95h-95zm95 0h95v95h-95zm95 0h95v95h-95zm-380-95h95v95h-95zm95 0h95v95h-95zm95 0h95v95h-95zm95 0h95v95h-95zm95 0h95v95h-95z"/>
            <path fill="#070707" fill-opacity=".3" d="M1431 286h94v94h-94zm-95 190h94v94h-94zm190 95h94v94h-94z"/>
        </mask>
        <g mask="url(#a)">
            <ellipse cx="1625" cy="462" fill="url(#b)" rx="644" ry="607"/>
            <ellipse cx="1445" cy="373.5" fill="url(#c)" rx="247" ry="227.5"/>
        </g>
        <mask id="d" width="856" height="951" x="-1" y="0" maskUnits="userSpaceOnUse" style="mask-type:alpha">
            <path stroke="#151515"
                  d="M759.5 475.5h-95v95h95zm95 0h-95v95h95zm-95 95h-95v95h95zm0 95h-95v95h95zm0 95h-95v95h95zm0 95h-95v95h95zm95-285h-95v95h95zm0 95h-95v95h95zm0 95h-95v95h95zm0 95h-95v95h95zm-95-475h-95v95h95zm95 0h-95v95h95zm-95-95h-95v95h95zm95 0h-95v95h95zm-95-95h-95v95h95zm95 0h-95v95h95zm-95-95h-95v95h95zm95 0h-95v95h95zm-95-95h-95v95h95zm95 0h-95v95h95zm-190 475h-95v95h95zm0 95h-95v95h95zm0 95h-95v95h95zm0 95h-95v95h95zm0 95h-95v95h95zm0-475h-95v95h95zm0-95h-95v95h95zm0-95h-95v95h95zm0-95h-95v95h95zm0-95h-95v95h95zm-95 475h-95v95h95zm0 95h-95v95h95zm0 95h-95v95h95zm0 95h-95v95h95zm0 95h-95v95h95zm-95-190h-95v95h95zm-95 0h-95v95h95zm-95 0h-95v95h95zm-95 0h-95v95h95zm-95 0h-95v95h95zm285-95h-95v95h95zm-95 0h-95v95h95zm-95 0h-95v95h95zm-95 0h-95v95h95zm380 190h-95v95h95zm-95 0h-95v95h95zm-95 0h-95v95h95zm-95 0h-95v95h95zm-95 0h-95v95h95zm380 95h-95v95h95zm-95 0h-95v95h95zm-95 0h-95v95h95zm-95 0h-95v95h95zm-95 0h-95v95h95zm475-475h-95v95h95zm0-95h-95v95h95zm0-95h-95v95h95zm0-95h-95v95h95zm0-95h-95v95h95zm-95 475h-95v95h95zm-95 0h-95v95h95zm-95 0h-95v95h95zm-95 0h-95v95h95zm-95 0h-95v95h95zm380 95h-95v95h95zm0-190h-95v95h95zm-95 0h-95v95h95zm-95 0h-95v95h95zm-95 0h-95v95h95zm-95 0h-95v95h95zm380-95h-95v95h95zm-95 0h-95v95h95zm-95 0h-95v95h95zm-95 0h-95v95h95zm-95 0h-95v95h95zm380-95h-95v95h95zm-95 0h-95v95h95zm-95 0h-95v95h95zm-95 0h-95v95h95zm-95 0h-95v95h95zm380-95h-95v95h95zm-95 0h-95v95h95zm-95 0h-95v95h95zm-95 0h-95v95h95zm-95 0h-95v95h95zm380-95h-95v95h95zm-95 0h-95v95h95zm-95 0h-95v95h95zm-95 0h-95v95h95zm-95 0h-95v95h95z"/>
            <path fill="#070707" fill-opacity=".3" d="M569 286h-94v94h94zm95 190h-94v94h94zm-190 95h-94v94h94z"/>
        </mask>
        <g mask="url(#d)">
            <ellipse cx="644" cy="607" fill="url(#e)" rx="644" ry="607" transform="matrix(-1 0 0 1 1019 -145)"/>
            <ellipse cx="247" cy="227.5" fill="url(#f)" rx="247" ry="227.5" transform="matrix(-1 0 0 1 802 146)"/>
        </g>
        <g filter="url(#g)"/>
    </g>
    <defs>
        <radialGradient id="b" cx="0" cy="0" r="1" gradientTransform="matrix(0 607 -644 0 1625 462)"
                        gradientUnits="userSpaceOnUse">
            <stop stop-color="#6F6F6F" stop-opacity=".2"/>
            <stop offset="1" stop-opacity="0"/>
        </radialGradient>
        <radialGradient id="c" cx="0" cy="0" r="1" gradientTransform="matrix(0 227.5 -247 0 1445 373.5)"
                        gradientUnits="userSpaceOnUse">
            <stop stop-color="#6F6F6F" stop-opacity=".2"/>
            <stop offset="1" stop-opacity="0"/>
        </radialGradient>
        <radialGradient id="e" cx="0" cy="0" r="1" gradientTransform="matrix(0 607 -644 0 644 607)"
                        gradientUnits="userSpaceOnUse">
            <stop stop-color="#6F6F6F" stop-opacity=".2"/>
            <stop offset="1" stop-opacity="0"/>
        </radialGradient>
        <radialGradient id="f" cx="0" cy="0" r="1" gradientTransform="scale(247 227.5) rotate(90 0 1)"
                        gradientUnits="userSpaceOnUse">
            <stop stop-color="#6F6F6F" stop-opacity=".2"/>
            <stop offset="1" stop-opacity="0"/>
        </radialGradient>
        <filter id="g" width="1277.83" height="601.825" x="-209.003" y="121.688" color-interpolation-filters="sRGB"
                filterUnits="userSpaceOnUse">
            <feGaussianBlur stdDeviation="50"/>
        </filter>
    </defs>
</svg>