<svg xmlns="http://www.w3.org/2000/svg" width="100" height="40" fill="none">
    <g clip-path="url(#a)" fill="#D1D9EB">
        <path d="M4.198 18.882c0-1.54-.766-2.813-2.198-3.882h3.329a4.9 4.9 0 0 1 1.884 3.882 4.9 4.9 0 0 1-1.884 3.882c1.08.458 1.696 1.578 1.696 3.181V29H4.01v-3.055c0-1.527-.716-2.596-2.01-3.181 1.432-1.07 2.198-2.342 2.198-3.882Zm6.532 0c0-1.54-.766-2.813-2.198-3.882h3.329a4.9 4.9 0 0 1 1.884 3.882 4.9 4.9 0 0 1-1.884 3.882c1.08.458 1.696 1.578 1.696 3.181V29h-3.015v-3.055c0-1.527-.716-2.596-2.01-3.181 1.432-1.07 2.198-2.342 2.198-3.882Zm6.532 0c0-1.54-.766-2.813-2.198-3.882h3.329a4.9 4.9 0 0 1 1.884 3.882 4.9 4.9 0 0 1-1.884 3.882c1.08.458 1.696 1.578 1.696 3.181V29h-3.015v-3.055c0-1.527-.716-2.596-2.01-3.181 1.432-1.07 2.198-2.342 2.198-3.882ZM29.46 26.454h-2.287v-8.909h5.615c2.701 0 4.033 1.019 4.033 2.686 0 1.133-.654 1.985-1.872 2.418 1.256.191 1.821.866 1.821 2.075v1.73H34.46v-1.629c0-1.018-.502-1.425-1.821-1.425H29.46v3.055Zm3.203-7.61H29.46v3.258h3.178c1.155 0 1.871-.65 1.871-1.668 0-1.005-.666-1.59-1.846-1.59ZM40.79 17.545h-2.286v8.91h2.286v-8.91ZM47.8 23.553h-2.79v2.901h-2.285v-8.909h5.125c2.7 0 4.12 1.146 4.12 2.979 0 1.896-1.445 3.029-4.17 3.029Zm-.05-4.71h-2.74v3.412h2.714c1.18 0 1.91-.611 1.91-1.719 0-1.082-.73-1.692-1.885-1.692ZM58.401 23.553h-2.789v2.901h-2.286v-8.909h5.125c2.701 0 4.12 1.146 4.12 2.979 0 1.896-1.444 3.029-4.17 3.029Zm-.05-4.71h-2.739v3.412h2.714c1.18 0 1.909-.611 1.909-1.719 0-1.082-.729-1.692-1.884-1.692ZM66.214 17.545v7.586h5.703v1.323h-7.989v-8.909h2.286ZM75.636 17.545H73.35v8.91h2.286v-8.91ZM79.077 20.524v5.93H77.57v-8.909h1.708l6.23 5.931v-5.93h1.508v8.909h-1.708l-6.23-5.931ZM94.478 18.59c-2.173 0-3.593 1.4-3.593 3.486 0 2.062 1.357 3.335 3.467 3.335h.15c.717 0 1.52-.153 2.262-.395v-2.405h-3.693v-1.273H99v4.188c-1.231.649-3.09 1.158-4.598 1.158h-.2c-3.468 0-5.703-1.858-5.703-4.557 0-2.672 2.298-4.81 5.828-4.81h.201c1.47 0 3.153.47 4.397 1.209l-.654 1.081c-1.118-.623-2.45-1.018-3.642-1.018h-.151Z"/>
    </g>
    <defs>
        <clipPath id="a">
            <path fill="#fff" transform="translate(2 15)" d="M0 0h97v14H0z"/>
        </clipPath>
    </defs>
</svg>