<svg xmlns="http://www.w3.org/2000/svg" width="100" height="40" fill="none">
    <path d="M36.089 20.431c-.72-.4-1.1-.723-1.1-1.18 0-.589.512-.95 1.327-.95.948 0 1.782.399 1.782.399l.664-2.035s-.607-.476-2.408-.476c-2.502 0-4.246 1.446-4.246 3.462 0 1.142.815 2.017 1.895 2.644.872.495 1.176.856 1.176 1.37 0 .552-.436.99-1.251.99-1.214 0-2.351-.629-2.351-.629l-.702 2.036s1.062.703 2.825.703c2.578 0 4.417-1.274 4.417-3.557.038-1.255-.91-2.13-2.028-2.777ZM46.364 16.151c-1.27 0-2.256.609-3.033 1.522l-.038-.02 1.1-5.782H41.51l-2.787 14.704h2.863l.947-5.021c.38-1.903 1.346-3.063 2.256-3.063.645 0 .891.437.891 1.065 0 .4-.037.875-.132 1.275l-1.08 5.763h2.862l1.118-5.935c.133-.627.209-1.37.209-1.883.038-1.655-.797-2.625-2.294-2.625ZM55.18 16.151c-3.451 0-5.745 3.12-5.745 6.601 0 2.226 1.365 4.033 3.943 4.033 3.393 0 5.668-3.044 5.668-6.601.02-2.074-1.175-4.033-3.867-4.033Zm-1.404 8.408c-.986 0-1.384-.837-1.384-1.883 0-1.655.853-4.337 2.408-4.337 1.024 0 1.346.875 1.346 1.73 0 1.789-.853 4.49-2.37 4.49ZM66.402 16.151c-1.934 0-3.034 1.712-3.034 1.712h-.037l.17-1.54h-2.54a70.618 70.618 0 0 1-.588 3.823l-1.99 10.5h2.862l.797-4.26h.056s.588.38 1.688.38c3.374 0 5.573-3.462 5.573-6.962 0-1.922-.853-3.653-2.957-3.653Zm-2.73 8.465c-.74 0-1.175-.418-1.175-.418l.473-2.683c.342-1.788 1.27-2.986 2.256-2.986.872 0 1.138.818 1.138 1.579 0 1.845-1.1 4.508-2.692 4.508ZM73.453 12.023c-.91 0-1.65.723-1.65 1.674 0 .856.531 1.446 1.346 1.446h.038c.891 0 1.668-.609 1.687-1.674.02-.856-.55-1.446-1.421-1.446ZM69.435 26.575h2.881l1.953-10.196h-2.9l-1.934 10.196ZM81.547 16.36h-1.99l.095-.475c.17-.99.74-1.865 1.706-1.865.512 0 .91.153.91.153l.569-2.245s-.493-.247-1.555-.247c-1.023 0-2.028.285-2.805.95-.986.838-1.441 2.036-1.669 3.254l-.076.475h-1.326l-.418 2.169h1.327L74.8 26.575h2.862l1.517-8.046h1.971l.398-2.169ZM88.447 16.38s-1.8 4.527-2.597 7h-.038c-.057-.8-.701-7-.701-7h-3.014l1.725 9.358c.038.21.019.343-.057.476a4.983 4.983 0 0 1-1.555 1.73c-.53.4-1.137.648-1.61.819l.795 2.435c.588-.134 1.782-.61 2.806-1.56 1.308-1.237 2.521-3.12 3.754-5.707l3.507-7.552h-3.015ZM20.998 9.76s-.265.076-.701.209a5.581 5.581 0 0 0-.342-.837c-.492-.951-1.232-1.465-2.104-1.465-.057 0-.114 0-.19.02-.018-.039-.056-.058-.075-.096-.38-.418-.872-.609-1.46-.59-1.137.038-2.275.856-3.185 2.321-.644 1.027-1.137 2.32-1.27 3.329-1.308.4-2.218.685-2.237.704-.663.209-.682.228-.758.856-.057.475-1.801 13.867-1.801 13.867l14.331 2.492V9.74c-.113 0-.17.02-.208.02Zm-3.318 1.027c-.758.228-1.592.494-2.407.742.228-.894.682-1.788 1.213-2.378.209-.21.493-.457.815-.609.323.685.399 1.617.38 2.245ZM16.127 7.78a1.3 1.3 0 0 1 .682.171c-.303.153-.606.4-.89.685-.72.78-1.27 1.998-1.498 3.158-.682.21-1.365.418-1.99.609.417-1.826 1.952-4.585 3.696-4.623Zm-2.199 10.463c.076 1.217 3.28 1.483 3.47 4.356.132 2.263-1.195 3.804-3.11 3.918-2.313.152-3.583-1.217-3.583-1.217l.493-2.093s1.27.97 2.294.894c.664-.038.91-.59.891-.97-.095-1.598-2.71-1.503-2.881-4.128-.152-2.206 1.289-4.432 4.473-4.641 1.233-.076 1.858.228 1.858.228l-.72 2.74s-.815-.381-1.782-.305c-1.403.095-1.422.99-1.403 1.218Zm4.512-7.685c0-.571-.076-1.39-.341-2.074.872.171 1.289 1.141 1.478 1.731-.341.095-.72.21-1.137.343ZM21.643 30.532l5.953-1.484s-2.56-17.367-2.579-17.481a.22.22 0 0 0-.208-.19c-.095 0-1.763-.039-1.763-.039s-1.024-.989-1.403-1.37v20.564Z"
          fill="#D1D9EB"/>
</svg>