<svg xmlns="http://www.w3.org/2000/svg" width="100" height="40" fill="none">
    <g clip-path="url(#a)">
        <path d="M22.467 18.563c-3.324 0-5.92 2.524-5.92 5.902s2.53 5.88 5.92 5.88 5.966-2.546 5.966-5.902c0-3.335-2.532-5.88-5.966-5.88Zm.023 9.347c-1.893 0-3.28-1.47-3.28-3.445 0-1.996 1.364-3.466 3.257-3.466 1.916 0 3.302 1.492 3.302 3.466 0 1.975-1.386 3.445-3.28 3.445Zm6.669-6.78h1.65v8.996h2.642V18.783h-4.292v2.348ZM9.899 21c1.387 0 2.488.855 2.905 2.128H15.6c-.507-2.72-2.752-4.564-5.679-4.564C6.597 18.563 4 21.087 4 24.465c0 3.38 2.532 5.88 5.921 5.88 2.862 0 5.15-1.843 5.658-4.585h-2.775c-.396 1.272-1.497 2.15-2.884 2.15-1.915 0-3.257-1.47-3.257-3.445C6.663 22.47 7.984 21 9.899 21Zm69.446 2.37-1.937-.286c-.925-.13-1.585-.438-1.585-1.162 0-.79.859-1.185 2.025-1.185 1.277 0 2.091.548 2.267 1.448h2.554c-.287-2.282-2.048-3.62-4.755-3.62-2.795 0-4.644 1.426-4.644 3.445 0 1.93 1.21 3.05 3.654 3.4l1.936.285c.947.131 1.476.505 1.476 1.207 0 .9-.925 1.272-2.201 1.272-1.564 0-2.444-.636-2.576-1.601h-2.597c.242 2.216 1.98 3.773 5.15 3.773 2.884 0 4.798-1.316 4.798-3.576 0-2.019-1.386-3.072-3.565-3.4Zm-47.215-9.26c-.968 0-1.695.703-1.695 1.668s.726 1.667 1.695 1.667c.969 0 1.696-.702 1.696-1.667 0-.965-.727-1.667-1.696-1.667Zm38.763 8.557c0-2.457-1.497-4.102-4.667-4.102-2.993 0-4.666 1.514-4.996 3.84h2.62c.131-.9.836-1.645 2.332-1.645 1.343 0 2.004.592 2.004 1.316 0 .944-1.211 1.184-2.708 1.338-2.025.22-4.534.921-4.534 3.554 0 2.041 1.519 3.357 3.94 3.357 1.893 0 3.082-.79 3.676-2.041.088 1.119.925 1.843 2.092 1.843h1.54v-2.347h-1.299v-5.113Zm-2.598 2.853c0 1.514-1.32 2.633-2.928 2.633-.99 0-1.827-.417-1.827-1.294 0-1.12 1.343-1.427 2.576-1.558 1.189-.11 1.849-.373 2.18-.878v1.097Zm-14.02-6.956c-1.476 0-2.709.615-3.589 1.646V14h-2.641v16.126h2.597v-1.492c.88 1.075 2.136 1.711 3.632 1.711 3.17 0 5.57-2.5 5.57-5.88 0-3.378-2.444-5.902-5.57-5.902Zm-.397 9.347c-1.893 0-3.28-1.47-3.28-3.445 0-1.974 1.409-3.466 3.301-3.466 1.916 0 3.258 1.47 3.258 3.466 0 1.975-1.386 3.445-3.279 3.445Zm-12.15-9.347c-1.718 0-2.84.702-3.5 1.69v-1.47h-2.62v11.342h2.64V23.96c0-1.733 1.101-2.961 2.73-2.961 1.52 0 2.465 1.074 2.465 2.633v6.494h2.641v-6.691c.001-2.853-1.473-4.872-4.357-4.872Zm53.773 5.53c0-3.247-2.377-5.529-5.569-5.529-3.39 0-5.877 2.545-5.877 5.901 0 3.533 2.664 5.88 5.921 5.88 2.752 0 4.91-1.624 5.459-3.927h-2.752c-.396 1.01-1.365 1.58-2.663 1.58-1.696 0-2.972-1.053-3.258-2.896H95.5v-1.01Zm-8.585-.878c.42-1.58 1.608-2.348 2.972-2.348 1.497 0 2.642.856 2.906 2.348h-5.878Z"
              fill="#D1D9EB"/>
    </g>
    <defs>
        <clipPath id="a">
            <path fill="#fff" transform="translate(4 14)" d="M0 0h91.686v16.345H0z"/>
        </clipPath>
    </defs>
</svg>